<?xml version="1.0" standalone="no"?>
<!DOCTYPE svg PUBLIC "-//W3C//DTD SVG 20010904//EN"
 "http://www.w3.org/TR/2001/REC-SVG-20010904/DTD/svg10.dtd">
<svg version="1.0" xmlns="http://www.w3.org/2000/svg"
 width="322.000000pt" height="292.000000pt" viewBox="0 0 322.000000 292.000000"
 preserveAspectRatio="xMidYMid meet">
<metadata>
Created by potrace 1.16, written by Peter Selinger 2001-2019
</metadata>
<g transform="translate(0.000000,292.000000) scale(0.100000,-0.100000)"
fill="#000000" stroke="none">
<path d="M828 2208 l2 -401 128 7 c70 3 146 9 170 12 l42 7 0 388 0 389 -172
0 -173 0 3 -402z"/>
<path d="M1850 2355 c0 -140 4 -255 8 -255 22 0 217 145 295 219 l47 45 0 123
0 123 -175 0 -175 0 0 -255z"/>
<path d="M2100 2061 c-53 -53 -129 -122 -169 -153 l-74 -56 1 -153 c1 -85 2
-238 2 -341 l0 -187 170 -3 170 -3 0 498 c0 273 -1 496 -2 496 -2 -1 -46 -45
-98 -98z"/>
<path d="M1070 1499 c-47 -10 -120 -21 -162 -25 l-78 -7 0 -148 0 -149 170 0
170 0 0 175 c0 96 -3 174 -7 174 -5 -1 -46 -10 -93 -20z"/>
<path d="M460 814 l0 -165 33 3 32 3 3 68 3 68 67 -3 67 -3 3 -67 3 -68 34 0
35 0 0 165 0 165 -35 0 -35 0 0 -65 0 -65 -70 0 -70 0 0 65 0 65 -35 0 -35 0
0 -166z"/>
<path d="M2208 933 c-2 -17 -12 -32 -25 -38 -29 -12 -31 -55 -4 -62 16 -4 19
-16 23 -73 4 -84 23 -110 80 -110 35 0 38 2 38 29 0 23 -5 30 -22 33 -20 3
-23 10 -26 61 -3 55 -2 57 23 57 21 0 25 5 25 29 0 23 -5 30 -22 33 -18 2 -24
11 -26 36 -3 28 -7 32 -32 32 -24 0 -29 -5 -32 -27z"/>
<path d="M855 884 c-45 -22 -69 -61 -69 -113 -2 -110 119 -166 204 -95 70 59
56 170 -25 208 -41 20 -71 20 -110 0z"/>
<path d="M1168 886 c-16 -8 -28 -11 -28 -5 0 5 -13 9 -30 9 l-30 0 0 -120 0
-120 35 0 35 0 0 74 c0 82 13 106 56 106 22 0 25 4 22 32 -3 38 -21 45 -60 24z"/>
<path d="M1675 886 c-61 -27 -90 -107 -60 -169 40 -85 147 -98 211 -26 34 38
39 82 14 133 -32 67 -97 92 -165 62z"/>
<path d="M1983 885 c-13 -9 -23 -11 -23 -6 0 6 -13 11 -30 11 l-30 0 0 -120 0
-120 35 0 35 0 0 85 c0 80 1 86 24 96 41 19 63 -2 71 -66 4 -30 5 -68 3 -85
-4 -28 -3 -30 29 -30 l33 0 0 94 c0 84 -3 98 -23 121 -28 33 -92 44 -124 20z"/>
<path d="M2423 885 c-39 -17 -73 -68 -73 -110 0 -76 76 -144 147 -130 21 4 49
20 67 38 l31 32 -29 3 c-15 2 -41 -2 -56 -8 -34 -14 -66 -6 -80 21 -10 18 -7
19 80 19 l91 0 -7 38 c-17 92 -89 133 -171 97z"/>
<path d="M1260 770 l0 -120 35 0 35 0 0 120 0 120 -35 0 -35 0 0 -120z"/>
<path d="M1372 863 c3 -26 7 -28 56 -31 l53 -3 -56 -67 c-31 -38 -55 -76 -55
-89 0 -22 2 -23 105 -23 l105 0 0 30 c0 30 -1 30 -55 30 -30 0 -55 3 -55 6 0
4 23 32 50 64 33 38 50 67 50 84 l0 26 -101 0 -100 0 3 -27z"/>
<path d="M1166 572 c-6 -9 -45 -112 -91 -239 l-34 -93 38 0 c34 0 39 3 47 33
10 32 11 32 76 35 l66 3 12 -36 c11 -32 15 -35 51 -35 l39 0 -13 32 c-8 18
-38 95 -67 171 l-53 137 -33 0 c-18 0 -35 -4 -38 -8z"/>
<path d="M1431 561 c-10 -10 -22 -33 -26 -50 -4 -17 -13 -31 -21 -31 -9 0 -14
-11 -14 -30 0 -24 4 -30 21 -30 21 0 21 -3 17 -90 l-5 -90 33 0 34 0 0 89 0
90 28 3 c21 2 28 9 30 31 3 24 0 27 -28 27 -24 0 -31 4 -28 17 2 9 14 20 28
23 18 4 26 14 28 33 3 25 1 27 -37 27 -27 0 -48 -7 -60 -19z"/>
<path d="M1567 483 c-4 -3 -7 -60 -7 -125 l0 -118 35 0 35 0 0 78 c0 83 9 102
47 102 20 0 23 5 23 35 0 39 -19 46 -57 20 -12 -8 -23 -11 -25 -6 -4 12 -43
23 -51 14z"/>
<path d="M1784 471 c-71 -43 -80 -137 -19 -198 48 -48 122 -48 170 0 41 41 52
90 31 140 -28 69 -117 97 -182 58z"/>
</g>
</svg>
